# xmcd
#
# Track frame offsets: 
#        182
#        19342
#        48570
#        71177
#        96385
#        120240
#        139020
#        167512
#        187405
#
# Disc length: 2951 seconds
#
# Revision: 3
# Processed by: cddbd v1.5.2PL0 Copyright (c) Steve Scherf et al.
# Submitted via: ExactAudioCopy v0.99pb5
#
DISCID=830b8509
DTITLE=Howlin' Wolf - In Concert
DYEAR=1999
DGENRE=Blues
TTITLE0=Shake It For Me
TTITLE1=Love Me
TTITLE2=Dust My Broom
TTITLE3=I Didn't Mean To Hurt Your Feelings
TTITLE4=Rockin' The Blues
TTITLE5=All My Life
TTITLE6=Goin' Down Slow
TTITLE7=Howlin' For My Darlin'
TTITLE8=Forty Four
EXTD=
EXTT0=
EXTT1=
EXTT2=
EXTT3=
EXTT4=
EXTT5=
EXTT6=
EXTT7=
EXTT8=
PLAYORDER=
